<svg width="130.23125px" height="72.8px" xmlns="http://www.w3.org/2000/svg" viewBox="184.884375 38.6 130.23125 72.8" style="background: rgba(0, 0, 0, 0);" preserveAspectRatio="xMidYMid"><defs><filter id="editing-hole" x="-100%" y="-100%" width="300%" height="300%"><feFlood flood-color="#000" result="black"></feFlood><feMorphology operator="dilate" radius="2" in="SourceGraphic" result="erode"></feMorphology><feGaussianBlur in="erode" stdDeviation="4" result="blur"></feGaussianBlur><feOffset in="blur" dx="2" dy="2" result="offset"></feOffset><feComposite operator="atop" in="offset" in2="black" result="merge"></feComposite><feComposite operator="in" in="merge" in2="SourceGraphic" result="inner-shadow"></feComposite></filter></defs><g filter="url(#editing-hole)"><g transform="translate(209.79383163154125, 86.79999828338623)"><path d="M6.67 0.43L4.55 0.36L4.55 0.36Q3.53 0.33 2.46 0.33L2.46 0.33L2.46 0.33Q1.39 0.33 0.33 0.46L0.33 0.46L0.33 0.46Q0.20-0.07 0.20-0.69L0.20-0.69L0.20-0.69Q0.20-2.01 0.94-2.81L0.94-2.81L0.94-2.81Q1.68-3.60 2.84-3.60L2.84-3.60L4.62-3.60L7.39-16.07L7.39-16.07Q6.37-15.05 4.26-15.05L4.26-15.05L4.26-15.05Q3.20-15.05 2.38-16.04L2.38-16.04L2.38-16.04Q1.55-16.96 1.42-18.28L1.42-18.28L1.42-18.28Q6.30-19.14 13.60-22.41L13.60-22.41L14.65-21.15L11.45-3.60L12.28-3.60L12.28-3.60Q14.26-3.60 15.28-3.96L15.28-3.96L15.28-3.96Q15.71-3.23 15.71-2.05L15.71-2.05L15.71-2.05Q15.71-0.86 14.83-0.15L14.83-0.15L14.83-0.15Q13.96 0.56 12.51 0.56L12.51 0.56L12.51 0.56Q9.57 0.56 6.67 0.43L6.67 0.43ZM24.02-16.66L23.10-13.56L23.10-13.56Q25.01-13.73 26.20-13.73L26.20-13.73L26.20-13.73Q27.39-13.73 28.64-13.30L28.64-13.30L28.64-13.30Q29.90-12.87 30.82-12.14L30.82-12.14L30.82-12.14Q32.87-10.53 32.87-8.46L32.87-8.46L32.87-8.46Q32.87-6.40 32.13-4.75L32.13-4.75L32.13-4.75Q31.38-3.10 30.10-1.91L30.10-1.91L30.10-1.91Q27.36 0.66 23.20 0.66L23.20 0.66L23.20 0.66Q20.20 0.66 18.61-0.30L18.61-0.30L18.61-0.30Q17.03-1.25 17.03-3.09L17.03-3.09L17.03-3.09Q17.03-4.92 18.18-5.91L18.18-5.91L18.18-5.91Q19.57-3.56 22.51-3.56L22.51-3.56L22.51-3.56Q24.29-3.56 25.28-4.39L25.28-4.39L25.28-4.39Q26.27-5.21 26.27-6.80L26.27-6.80L26.27-6.80Q26.27-9.97 21.68-9.97L21.68-9.97L21.68-9.97Q19.93-9.97 18.81-9.83L18.81-9.83L21.91-21.78L29.67-21.78L29.67-21.78Q32.27-21.78 33.10-22.94L33.10-22.94L33.10-22.94Q33.96-22.18 33.96-20.49L33.96-20.49L33.96-20.49Q33.96-18.91 32.70-17.79L32.70-17.79L32.70-17.79Q31.45-16.66 29.67-16.66L29.67-16.66L24.02-16.66ZM34.32-1.95L34.32-1.95L34.32-1.95Q34.32-3.20 35.29-3.89L35.29-3.89L35.29-3.89Q36.27-4.59 37.65-4.59L37.65-4.59L37.65-4.59Q39.04-4.59 39.88-3.89L39.88-3.89L39.88-3.89Q40.72-3.20 40.72-1.95L40.72-1.95L40.72-1.95Q40.72-0.69 39.78-0.02L39.78-0.02L39.78-0.02Q38.84 0.66 37.45 0.66L37.45 0.66L37.45 0.66Q36.07 0.66 35.19-0.02L35.19-0.02L35.19-0.02Q34.32-0.69 34.32-1.95ZM37.03-14.85L37.03-14.85L37.03-14.85Q37.03-16.10 38.00-16.80L38.00-16.80L38.00-16.80Q38.97-17.49 40.36-17.49L40.36-17.49L40.36-17.49Q41.75-17.49 42.59-16.80L42.59-16.80L42.59-16.80Q43.43-16.10 43.43-14.85L43.43-14.85L43.43-14.85Q43.43-13.60 42.49-12.92L42.49-12.92L42.49-12.92Q41.55-12.24 40.16-12.24L40.16-12.24L40.16-12.24Q38.78-12.24 37.90-12.92L37.90-12.92L37.90-12.92Q37.03-13.60 37.03-14.85ZM50.92 0.43L48.81 0.36L48.81 0.36Q47.78 0.33 46.71 0.33L46.71 0.33L46.71 0.33Q45.64 0.33 44.58 0.46L44.58 0.46L44.58 0.46Q44.45-0.07 44.45-0.69L44.45-0.69L44.45-0.69Q44.45-2.01 45.19-2.81L45.19-2.81L45.19-2.81Q45.94-3.60 47.09-3.60L47.09-3.60L48.87-3.60L51.65-16.07L51.65-16.07Q50.62-15.05 48.51-15.05L48.51-15.05L48.51-15.05Q47.45-15.05 46.63-16.04L46.63-16.04L46.63-16.04Q45.80-16.96 45.67-18.28L45.67-18.28L45.67-18.28Q50.56-19.14 57.85-22.41L57.85-22.41L58.91-21.15L55.70-3.60L56.53-3.60L56.53-3.60Q58.51-3.60 59.53-3.96L59.53-3.96L59.53-3.96Q59.96-3.23 59.96-2.05L59.96-2.05L59.96-2.05Q59.96-0.86 59.09-0.15L59.09-0.15L59.09-0.15Q58.21 0.56 56.76 0.56L56.76 0.56L56.76 0.56Q53.82 0.56 50.92 0.43L50.92 0.43ZM61.55-4.59L61.55-4.59L61.55-4.59Q61.55-8.38 66.50-10.79L66.50-10.79L66.50-10.79Q64.32-12.57 64.32-14.88L64.32-14.88L64.32-14.88Q64.32-18.05 66.96-20.26L66.96-20.26L66.96-20.26Q69.56-22.44 73.46-22.44L73.46-22.44L73.46-22.44Q76.10-22.44 77.72-21.19L77.72-21.19L77.72-21.19Q79.33-19.93 79.33-18.05L79.33-18.05L79.33-18.05Q79.33-15.18 76.43-13.20L76.43-13.20L76.43-13.20Q75.60-12.64 74.71-12.24L74.71-12.24L74.71-12.24Q76.86-10.46 77.39-9.70L77.39-9.70L77.39-9.70Q78.28-8.48 78.28-7.00L78.28-7.00L78.28-7.00Q78.28-5.51 77.53-4.06L77.53-4.06L77.53-4.06Q76.79-2.61 75.47-1.58L75.47-1.58L75.47-1.58Q72.70 0.66 68.64 0.66L68.64 0.66L68.64 0.66Q65.41 0.66 63.46-0.79L63.46-0.79L63.46-0.79Q61.55-2.24 61.55-4.59ZM70.78-7.03L68.47-8.98L68.47-8.98Q66.79-7.69 66.79-5.51L66.79-5.51L66.79-5.51Q66.79-4.36 67.34-3.56L67.34-3.56L67.34-3.56Q67.88-2.77 68.90-2.77L68.90-2.77L68.90-2.77Q69.93-2.77 70.70-3.53L70.70-3.53L70.70-3.53Q71.48-4.29 71.48-5.45L71.48-5.45L71.48-5.45Q71.48-6.47 70.78-7.03L70.78-7.03ZM70.72-15.31L72.67-13.86L72.67-13.86Q74.48-14.72 74.48-16.73L74.48-16.73L74.48-16.73Q74.48-17.79 73.92-18.48L73.92-18.48L73.92-18.48Q73.36-19.17 72.34-19.17L72.34-19.17L72.34-19.17Q71.31-19.17 70.64-18.58L70.64-18.58L70.64-18.58Q69.96-17.98 69.96-17.23L69.96-17.23L69.96-17.23Q69.96-15.94 70.72-15.31L70.72-15.31Z" fill="#ccc"></path></g></g><style>text {
  font-size: 64px;
  font-family: Arial Black;
  dominant-baseline: central;
  text-anchor: middle;
}</style></svg>